<svg xmlns="http://www.w3.org/2000/svg" width="1024" height="1024" viewBox="0 0 1024 1024">
  <defs>
    <linearGradient id="bg" x1="0" y1="0" x2="1" y2="1">
      <stop offset="0" stop-color="#2563EB"/>
      <stop offset="1" stop-color="#0F766E"/>
    </linearGradient>
    <filter id="shadow" x="-20%" y="-20%" width="140%" height="140%">
      <feDropShadow dx="0" dy="24" stdDeviation="24" flood-color="#062E48" flood-opacity=".28"/>
    </filter>
  </defs>
  <rect x="52" y="52" width="920" height="920" rx="210" fill="url(#bg)"/>
  <g filter="url(#shadow)">
    <rect x="196" y="240" width="632" height="544" rx="86" fill="#F8FAFC"/>
    <path d="M196 326c0-47 39-86 86-86h460c47 0 86 39 86 86v92H196z" fill="#DDF7F3"/>
    <rect x="276" y="308" width="244" height="46" rx="23" fill="#0F766E" opacity=".82"/>
    <rect x="276" y="386" width="388" height="32" rx="16" fill="#94A3B8" opacity=".7"/>
    <path d="M349 573h271" stroke="#2563EB" stroke-width="56" stroke-linecap="round"/>
    <path d="m572 515 70 58-70 58" fill="none" stroke="#2563EB" stroke-width="44" stroke-linecap="round" stroke-linejoin="round"/>
    <path d="M675 681H404" stroke="#0F766E" stroke-width="56" stroke-linecap="round"/>
    <path d="m452 623-70 58 70 58" fill="none" stroke="#0F766E" stroke-width="44" stroke-linecap="round" stroke-linejoin="round"/>
  </g>
</svg>
